inDegrees=no
num_controls=7
num_derivatives=13
num_iterations=125
num_multipliers=7
num_parameters=0
num_slacks=7
num_states=26
objective=0.431130
objective_accelerations=0.049526
objective_balance=0.006848
objective_effort=0.031078
objective_height=0.342504
objective_ligament=0.001176
solver_duration=1602.577873
status=Solve_Succeeded
success=true
DataType=double
version=3
OpenSimVersion=4.5
endheader
time	/jointset/ground_pelvis/pelvis_tilt/value	/jointset/ground_pelvis/pelvis_tx/value	/jointset/ground_pelvis/pelvis_ty/value	/jointset/hip_l/hip_flexion_l/value	/jointset/hip_l/hip_adduction_l/value	/jointset/hip_l/hip_rotation_l/value	/jointset/back/lumbar_extension/value	/jointset/patellofemoral_l/patellar_flexion_l/value	/jointset/knee_l/knee_flexion_l/value	/jointset/knee_l/knee_adduction_l/value	/jointset/knee_l/knee_rotation_l/value	/jointset/ankle_l/ankle_angle_l/value	/jointset/subtalar_l/subtalar_angle_l/value	/jointset/ground_pelvis/pelvis_tilt/speed	/jointset/ground_pelvis/pelvis_tx/speed	/jointset/ground_pelvis/pelvis_ty/speed	/jointset/hip_l/hip_flexion_l/speed	/jointset/hip_l/hip_adduction_l/speed	/jointset/hip_l/hip_rotation_l/speed	/jointset/back/lumbar_extension/speed	/jointset/patellofemoral_l/patellar_flexion_l/speed	/jointset/knee_l/knee_flexion_l/speed	/jointset/knee_l/knee_adduction_l/speed	/jointset/knee_l/knee_rotation_l/speed	/jointset/ankle_l/ankle_angle_l/speed	/jointset/subtalar_l/subtalar_angle_l/speed	/forceset/tau_hip_flexion_l	/forceset/tau_hip_adduction_l	/forceset/tau_hip_rotation_l	/forceset/tau_knee_flexion_l	/forceset/tau_ankle_angle_l	/forceset/tau_subtalar_angle_l	/forceset/tau_lumbar_extension	lambda_cid13_p0	lambda_cid13_p1	lambda_cid13_p2	lambda_cid13_p3	lambda_cid13_p4	lambda_cid13_p5	lambda_cid14_p0	/jointset/ground_pelvis/pelvis_tilt/accel	/jointset/ground_pelvis/pelvis_tx/accel	/jointset/ground_pelvis/pelvis_ty/accel	/jointset/hip_l/hip_flexion_l/accel	/jointset/hip_l/hip_adduction_l/accel	/jointset/hip_l/hip_rotation_l/accel	/jointset/back/lumbar_extension/accel	/jointset/patellofemoral_l/patellar_flexion_l/accel	/jointset/knee_l/knee_flexion_l/accel	/jointset/knee_l/knee_adduction_l/accel	/jointset/knee_l/knee_rotation_l/accel	/jointset/ankle_l/ankle_angle_l/accel	/jointset/subtalar_l/subtalar_angle_l/accel	gamma_cid13_p0	gamma_cid13_p1	gamma_cid13_p2	gamma_cid13_p3	gamma_cid13_p4	gamma_cid13_p5	gamma_cid14_p0
1	-0.4497961805009618	-0.05533699436358955	0.5938461946912108	1.775475777718245	-0.2734001990635704	0.2203645864161392	-0.4363251319317661	1.415617987579685	1.415617987578997	-0.1744894325859442	0.1745302103413125	0.3064914757565125	0.04663953185370652	-0.008290200549856689	0.001324837160212552	-0.00382846559383726	0.01559984606323734	0.001143084437655937	0.004256744565965824	0.000111829796836509	0.0112200989677846	0.01122009896778873	1.636741186787405e-05	-3.284369386894198e-05	0.004620004180033829	0.002710985164318752	-0.3319272799948295	0.004606469918488554	-0.01299826951389326	-0.3671280789700894	0.05240687325547649	0.01780733154170821	0.2961487965361867	-29.21449564423546	-1.48690939977496	-1.457887998842585	16.75155596887432	-728.1205907812696	-56.09265436346553	-0.03941529198049277	1.052685133161169	-0.02149640196556214	1.786946833191274	-5.641646318099033	-0.5872902228015935	-2.054573664175658	-0.01439732159670602	-5.496929831082285	-5.496929831082324	-0.06388467953055749	0.01983942804837392	-1.210337887372354	-1.064503969361897	5.469575646200964e-10	3.594507008858305e-09	-1.229780939436381e-08	-1.093893476414682e-09	2.47871657393637e-09	-3.153402066045976e-09	1.983309858399639e-09
1.01	-0.4498268758471592	-0.0553248268790958	0.593897161288509	1.775350306536478	-0.2734172909843415	0.2203024479613153	-0.4363243529075676	1.41545567659694	1.41545567659661	-0.1744893040408115	0.1745300069648314	0.3064774494548509	0.04661466340417863	0.002146570163292925	0.001110067426654509	0.01401975170581996	-0.04068712373174554	-0.004558665667032759	-0.01668148911872051	3.661547580771635e-05	-0.04368242560620324	-0.04368242560619962	9.073689862114929e-06	-9.300784254565292e-06	-0.007428129185700636	-0.007680697711876587	-0.3316785014268293	0.004626901828101418	-0.01302448102830438	-0.3672041655872066	0.052726307215462	0.01778277129294612	0.2959666569922404	-29.10063862618636	-1.495158348788358	-1.457737923330735	16.62144353802096	-727.9647713661168	-56.09562922482593	-0.03942681269965302	1.038489160479615	-0.02125472625115218	1.783452474689794	-5.621178441993803	-0.5612030293204807	-2.113011838519276	-0.005187422623773356	-5.486931830142876	-5.486931830142938	0.0308050741640229	-0.006618413588534542	-1.202479920828004	-1.025908700607076	-2.258407763701359e-09	-1.245240215605236e-09	4.175769244273501e-08	6.817992787446323e-09	-8.397735709074992e-09	3.261328340617255e-08	-7.176638724828467e-09
1.02	-0.4497533402622073	-0.05531476458537765	0.5941265487180708	1.774662174430404	-0.273491317531163	0.220031014446064	-0.4363245468136253	1.414744336756539	1.414744336756565	-0.1744892570743587	0.1745299929902409	0.3063428560476014	0.04648599647511703	0.01255598567995238	0.0009037990050906606	0.03185570085894639	-0.09693233879856486	-0.01024384077244069	-0.03760226751957343	-8.275625593402197e-05	-0.09858567256362535	-0.09858567256362258	5.167584084137e-08	5.036685099594489e-06	-0.01949341693759525	-0.01804871074242099	-0.3314297228588245	0.004647333737715395	-0.01305069254271429	-0.3672802522043243	0.05304574117544685	0.0177582110441854	0.2957845174482989	-28.99522302353294	-1.500673682715314	-1.459458114140312	16.5427936526831	-727.9139942544541	-56.04717525616859	-0.03943202522950989	1.047214093863137	-0.01979613956672295	1.784493203885117	-5.63329537246632	-0.5839752229454438	-2.051082607408977	-0.02322880373932881	-5.497074307769138	-5.497074307769245	-0.0642303379336621	0.01799833999633541	-1.213768764604384	-1.059770000231712	-5.11199471334329e-09	-5.716008400671805e-09	9.54481069908496e-08	1.444960573798652e-08	-1.90697272788264e-08	7.02302031294876e-08	-1.656940039922975e-08
1.03	-0.4495757776482596	-0.05530666478060414	0.5945341840219925	1.773411810980456	-0.2736220662116125	0.2195505334314228	-0.4363259494895825	1.413484061479899	1.413484061479299	-0.1744893227442775	0.1745301038002076	0.306087535478155	0.04625386126826427	0.02295881471175047	0.0007232972382233802	0.04966435564984248	-0.1531322544533426	-0.01589827710781762	-0.05848495807872646	-0.0001844592646684394	-0.1534596709586466	-0.153459670958679	-1.34838314108435e-05	1.842410544847604e-05	-0.03157243398227318	-0.0283648497801551	-0.3312026312034456	0.004691431880189022	-0.01313204208483044	-0.3670500534205287	0.05333566275940756	0.01784492886088155	0.295674672615201	-28.87924297469223	-1.571255587077472	-1.433798106123203	16.36998520084325	-727.6865512727752	-56.06465202722356	-0.03945994819129377	1.037159843872704	-0.01610244005115807	1.777994962767449	-5.61212504119359	-0.5550569383622026	-2.105535823103842	-0.001643098927011935	-5.481100584681875	-5.481100584687078	0.03002905059565097	-0.006830691050077468	-1.205225873219435	-1.015530143604891	-7.966073720345634e-09	-1.018301149349963e-08	1.491347961584644e-07	2.207835875675815e-08	-2.973963251476902e-08	1.078660027941404e-07	-2.596453771741852e-08
1.04	-0.4492941182367873	-0.05530015504246016	0.5951196945430381	1.77159969129812	-0.2738091350753213	0.2188614908026034	-0.4363279696055156	1.411675338623447	1.411675338622219	-0.1744895349277248	0.1745303805575544	0.3057113731984979	0.04591896581342203	0.03337534518493088	0.0005857856791836222	0.06743074428375648	-0.2092835852765244	-0.02150787742433028	-0.07931459035529494	-0.0002062442528634926	-0.2082751885261991	-0.2082751885262659	-2.925102999938237e-05	3.822616162744377e-05	-0.04366175897974849	-0.03860076034031446	-0.3309755395480621	0.004735530022664297	-0.01321339162694774	-0.3668198546367337	0.05362558434336769	0.01793164667757983	0.2955648277821077	-28.77177782638469	-1.639081827488545	-1.410022372313275	16.24861249330414	-727.564744466962	-56.03120165723199	-0.03948159743114468	1.049954382139601	-0.0111980980012194	1.776039972488697	-5.623578406147113	-0.5750080191725886	-2.040470950892065	-0.007245199631449085	-5.485378142275418	-5.485378142275351	-0.06467667620103225	0.01928126716234672	-1.215830355163861	-1.043724304716756	-1.091650811218699e-08	-1.57832462715653e-08	2.01672898311649e-07	2.980738492798434e-08	-4.079252706413608e-08	1.399148310236158e-07	-3.471172286139209e-08
1.05	-0.448908241716958	-0.05529482163252764	0.5958826252226762	1.769226386622977	-0.2740520014122926	0.2179644845939683	-0.4363299422854611	1.409318662283075	1.409318662282848	-0.1744899298754802	0.1745308217171577	0.305214093283797	0.04548219235511824	0.04380033217059669	0.0004863470589499911	0.08514523264454632	-0.265360927011321	-0.02705003608470985	-0.1000730527050364	-0.0001882342979702335	-0.2630599554873917	-0.263059955487353	-4.908759777141883e-05	4.398167842540476e-05	-0.05581324542609841	-0.04873197122883125	-0.3304298239601771	0.004872505564094603	-0.01335428046904921	-0.3665034169330574	0.05407765204379977	0.01805124478513514	0.295215313651328	-28.59441812962169	-1.738911979479108	-1.374877756626432	16.09002306751136	-727.1746233929283	-56.01741800372471	-0.03953484014922429	1.038828391105071	-0.0084915452814129	1.767618934738831	-5.597348482860659	-0.5415542685628152	-2.091528155035718	0.00633270871398296	-5.474998588056049	-5.47499858804024	0.02944196524549354	-0.009739159827366459	-1.217656261103043	-0.9945527741733534	-1.386995360980456e-08	-2.141889453979466e-08	2.541751071206327e-07	3.753954463522474e-08	-5.185739002954763e-08	1.71789066395742e-07	-4.343865949992143e-08
1.06	-0.4484181038204075	-0.05529031756904682	0.5968223939192948	1.766292801245344	-0.2743498362316861	0.2168602949062321	-0.4363317331427052	1.406414143750089	1.406414143750864	-0.1744905073664503	0.1745311280611755	0.3045947288102859	0.04494476012927844	0.0542276205292626	0.0004199163888429921	0.1027983476799165	-0.3213397257747073	-0.03250157390877671	-0.1207512861755996	-0.0001698797165060081	-0.3178436270491802	-0.3178436270490354	-6.575967311189411e-05	1.126304458762064e-05	-0.06807867074174781	-0.05873251384751661	-0.3298841083722926	0.005009481105526221	-0.01349516931115351	-0.3661869792293816	0.05452971974423194	0.01817084289269231	0.2948657995205477	-28.42573695838549	-1.835942812108316	-1.341641524621677	15.98306747671039	-726.8916666225629	-55.95377694677949	-0.03958192422093076	1.050414656739621	-0.004596507975893942	1.763765307404773	-5.603869811865056	-0.5568838519100453	-2.024425175056417	-0.007176274317178486	-5.485159062394596	-5.485159062394404	-0.06404377771471791	0.01158643703518607	-1.238618129023759	-1.017590650750461	-1.757741956080082e-08	-2.723547734899091e-08	3.035077523960493e-07	4.464957864246401e-08	-6.032273605885329e-08	2.084870050095813e-07	-5.288549394676727e-08
1.07	-0.4478236861096048	-0.05528611491983151	0.5979382766048849	1.762800038204179	-0.2747016873692637	0.2155499291390025	-0.4363322236441287	1.40296225908629	1.402962259086368	-0.1744912946337031	0.1745310073177566	0.303852511713613	0.0443081606955515	0.06465561880004336	0.0004458942114355703	0.1203571031372706	-0.3771850653002263	-0.03785023133893692	-0.141296388316103	0.0001838015525405506	-0.3724871068465546	-0.3724871068464458	-9.104779261119526e-05	-2.854417096684478e-05	-0.08034692968006346	-0.06854908729441496	-0.3299438732081985	0.005161443997958519	-0.01368016375538031	-0.3652187995265748	0.05476382956622854	0.0184373171402393	0.2951529350073527	-28.30671448391139	-2.008043453610221	-1.273618993286716	15.61929144995666	-726.5992796337534	-55.93725139185635	-0.03963607965551349	1.038948749588361	0.00999748634100864	1.748753872063558	-5.570693503622864	-0.5211445482642995	-2.065779753513976	0.07344364663266839	-5.447000000568801	-5.447000000574255	0.0282987035823713	-0.01081519725751096	-1.218250838971208	-0.9579851348155382	-2.132499298272148e-08	-3.306168433589816e-08	3.526718038664889e-07	5.172652085715002e-08	-6.86498099107065e-08	2.454415235830862e-07	-6.237062083022569e-08
1.08	-0.4471249971486264	-0.05528089198059744	0.5992291114864808	1.758749656271611	-0.2751064826530821	0.2140348669463753	-0.4363258166690976	1.398965328112086	1.398965328111466	-0.17449232077562	0.1745306783229005	0.3029881478150098	0.04357453663872437	0.075081870564466	0.0006239743925998709	0.1377887868811297	-0.4328635040548485	-0.04309040315690919	-0.1616905712552739	0.001209615586269786	-0.4268528891303275	-0.426852889130253	-0.0001135346061139831	-3.038724279135987e-05	-0.09250803112780882	-0.07813743846755405	-0.3300036380441105	0.005313406890391989	-0.01386515819960693	-0.364250619823768	0.05499793938822632	0.01870379138778826	0.2954400704941515	-28.19663729539688	-2.177119748673801	-1.207744406613992	15.30680160701284	-726.4163477683611	-55.87200686737289	-0.03968379758280039	1.050065355467996	0.02582396373845026	1.738350964705799	-5.570489657685714	-0.5351867294724502	-1.9942413347899	0.1272502786193982	-5.429619559674331	-5.429619559673767	-0.06348351651541256	0.01917926578116359	-1.217186630909707	-0.9719461959985969	-2.497045318469428e-08	-4.226103073205873e-08	3.96566589222969e-07	5.708372437676836e-08	-7.730373708487534e-08	2.694460044168797e-07	-7.050095392162825e-08
